<?xml version="1.0" standalone="no"?>
<!DOCTYPE svg PUBLIC "-//W3C//DTD SVG 20010904//EN"
 "http://www.w3.org/TR/2001/REC-SVG-20010904/DTD/svg10.dtd">
<svg version="1.0" xmlns="http://www.w3.org/2000/svg"
 width="2011.000000pt" height="1733.000000pt" viewBox="0 0 2011.000000 1733.000000"
 preserveAspectRatio="xMidYMid meet">

<g transform="translate(0.000000,1733.000000) scale(0.100000,-0.100000)"
fill="#000000" stroke="none">
<path d="M10185 17127 c-27 -18 -121 -69 -290 -157 -151 -78 -244 -128 -260
-140 -5 -4 -64 -36 -130 -70 -401 -210 -508 -267 -715 -377 -103 -56 -231
-123 -390 -205 -162 -84 -327 -171 -395 -208 -27 -15 -99 -53 -160 -85 -258
-135 -499 -264 -603 -321 -50 -28 -216 -115 -392 -206 -105 -55 -262 -140
-430 -235 -19 -11 -111 -59 -205 -108 -93 -48 -244 -128 -335 -178 -91 -49
-208 -112 -260 -139 -52 -28 -122 -65 -155 -83 -33 -18 -121 -64 -195 -102
-120 -62 -261 -138 -470 -251 -36 -19 -135 -71 -220 -114 -186 -96 -341 -178
-355 -188 -5 -4 -68 -38 -140 -75 -71 -37 -152 -80 -180 -95 -27 -15 -106 -56
-175 -90 -69 -35 -159 -82 -200 -105 -87 -49 -412 -224 -585 -315 -66 -34
-167 -89 -225 -120 -58 -32 -140 -76 -182 -99 -43 -22 -111 -58 -150 -80 -40
-21 -136 -71 -213 -111 -77 -40 -196 -103 -265 -140 -117 -63 -202 -107 -630
-328 -91 -46 -169 -88 -175 -92 -5 -4 -118 -63 -250 -130 -132 -68 -253 -131
-270 -140 l-30 -17 -3 -176 c-2 -174 -2 -176 20 -190 13 -8 97 -53 188 -99 91
-47 188 -98 215 -114 115 -64 197 -108 315 -169 185 -96 284 -152 288 -165 3
-9 -306 -165 -728 -367 -69 -33 -164 -79 -212 -103 l-88 -43 -2 -361 c-2 -199
-1 -367 1 -374 4 -13 122 -81 336 -192 77 -40 176 -92 220 -115 44 -23 130
-68 190 -100 61 -32 115 -61 120 -65 6 -4 43 -24 83 -45 40 -21 71 -42 69 -48
-4 -14 -3 -13 -232 -123 -296 -142 -641 -309 -715 -347 l-65 -33 0 -351 c0
-302 2 -353 15 -361 8 -5 96 -51 195 -102 99 -51 203 -105 230 -120 28 -15 91
-49 140 -75 50 -26 104 -55 120 -65 43 -25 197 -107 278 -148 37 -19 67 -40
65 -47 -3 -14 -170 -102 -543 -286 -143 -71 -316 -157 -384 -191 l-124 -63 2
-355 c2 -261 5 -358 14 -367 18 -17 349 -198 527 -288 85 -43 211 -108 280
-145 116 -62 198 -105 680 -353 96 -49 180 -93 185 -97 6 -4 51 -29 100 -55
50 -26 117 -62 150 -80 33 -18 141 -74 240 -125 99 -51 194 -101 210 -110 145
-81 358 -196 480 -260 274 -143 403 -212 515 -275 91 -51 196 -107 395 -210
206 -107 327 -171 415 -220 41 -23 161 -86 265 -140 105 -54 217 -112 250
-130 33 -18 116 -63 185 -100 69 -38 143 -78 165 -90 22 -13 115 -61 206 -108
91 -47 242 -126 335 -177 93 -51 203 -111 244 -133 41 -22 80 -43 85 -47 6 -4
48 -27 95 -50 47 -24 132 -69 190 -100 58 -31 143 -77 190 -102 47 -25 102
-55 122 -66 72 -41 164 -90 298 -159 146 -76 172 -90 415 -223 88 -48 252
-135 365 -193 113 -59 228 -120 255 -135 127 -72 393 -216 520 -282 77 -40
169 -89 205 -108 252 -137 419 -225 575 -304 244 -123 403 -207 445 -235 41
-27 66 -29 72 -5 6 21 248 156 628 350 151 77 309 159 350 182 41 22 156 81
255 131 99 50 185 94 190 98 6 5 91 50 190 101 99 51 196 103 215 115 19 12
124 68 233 124 110 56 292 153 405 215 114 62 281 152 372 198 91 47 228 119
305 160 125 67 353 187 705 371 63 33 133 70 155 82 40 22 152 81 480 250 94
49 199 105 235 125 36 21 115 63 175 95 61 32 146 77 190 100 44 23 134 71
200 105 66 34 154 82 195 105 111 62 187 103 370 197 91 47 185 97 210 110 25
14 86 47 135 73 50 26 124 67 166 91 41 23 138 75 215 114 215 111 382 200
457 242 38 21 70 38 72 38 2 0 30 15 62 34 32 18 150 81 263 138 248 127 342
177 525 279 77 42 194 104 260 138 66 33 156 80 200 104 180 97 264 144 370
202 28 15 142 75 255 133 113 57 210 107 215 112 15 10 203 110 321 169 56 27
105 58 108 67 13 35 4 174 -13 194 -9 11 -88 56 -176 101 -236 119 -543 280
-735 384 -119 65 -292 157 -392 209 -32 16 -58 33 -58 37 0 7 128 81 280 162
233 123 528 283 690 372 103 57 237 128 298 159 l113 57 -3 70 -3 70 -250 128
c-400 204 -609 312 -620 321 -5 4 -56 31 -113 60 -57 28 -102 56 -100 62 2 5
57 38 123 72 266 138 425 222 515 274 52 30 170 91 263 136 130 63 169 86 173
104 4 12 3 66 -1 118 l-7 96 -197 94 c-108 52 -259 127 -336 166 -441 226
-520 268 -523 277 -2 5 46 34 105 64 59 30 191 98 293 151 154 81 419 213 620
309 l45 22 3 85 c2 47 1 94 -2 106 -4 14 -36 33 -118 69 -103 44 -391 188
-748 372 -74 38 -150 75 -167 81 -18 6 -33 17 -33 24 0 7 30 29 68 48 37 20
146 78 242 129 297 158 369 195 568 296 l193 96 -3 77 -3 77 -225 115 c-264
135 -521 270 -535 280 -5 4 -71 38 -145 75 -119 60 -235 121 -430 227 -30 17
-174 91 -320 166 -146 74 -303 156 -350 182 -126 70 -187 103 -502 268 -158
83 -322 171 -365 195 -76 43 -172 93 -478 252 -190 99 -261 137 -355 189 -41
24 -151 82 -245 131 -227 118 -543 286 -610 325 -16 10 -115 62 -220 115 -104
54 -296 155 -425 225 -129 70 -302 162 -385 205 -82 43 -262 139 -400 213
-137 74 -333 178 -435 230 -102 51 -216 111 -255 132 -135 72 -411 218 -555
292 -247 129 -515 270 -525 278 -5 4 -89 48 -185 97 -96 50 -263 137 -370 195
-108 58 -295 156 -415 218 -121 62 -224 116 -230 120 -5 4 -107 58 -225 120
-254 133 -343 181 -427 226 -70 39 -71 39 -98 21z m300 -1137 c77 -43 214
-116 305 -162 174 -90 285 -148 385 -203 33 -18 85 -46 115 -62 49 -27 251
-133 660 -345 69 -36 145 -77 170 -91 25 -13 115 -60 200 -104 169 -87 244
-127 575 -303 121 -64 306 -161 410 -215 105 -54 224 -117 265 -140 77 -43
151 -83 445 -238 94 -49 175 -93 180 -97 6 -4 55 -31 110 -60 55 -29 123 -65
150 -80 28 -15 139 -73 248 -129 229 -117 538 -280 552 -291 6 -4 107 -58 225
-120 118 -62 258 -136 310 -165 142 -78 252 -136 490 -257 118 -61 229 -118
245 -128 29 -17 84 -47 270 -145 50 -26 95 -51 100 -55 6 -4 69 -38 140 -75
218 -114 315 -165 445 -238 175 -98 186 -104 365 -197 88 -46 249 -132 358
-192 260 -144 418 -228 440 -235 10 -3 17 -12 15 -20 -3 -14 -28 -30 -188
-114 -41 -21 -115 -61 -165 -89 -49 -28 -165 -88 -257 -135 -92 -46 -207 -105
-255 -131 -48 -26 -131 -69 -183 -97 -52 -27 -124 -66 -160 -85 -36 -19 -159
-83 -275 -142 -222 -113 -354 -182 -420 -220 -22 -13 -148 -78 -280 -145 -132
-67 -267 -137 -300 -155 -33 -18 -107 -57 -165 -88 -58 -30 -139 -72 -180 -94
-125 -67 -228 -122 -375 -198 -77 -40 -144 -76 -150 -80 -5 -4 -55 -31 -110
-60 -55 -29 -122 -65 -150 -80 -27 -15 -129 -67 -225 -115 -96 -49 -195 -100
-220 -115 -51 -30 -150 -84 -295 -160 -55 -29 -129 -69 -165 -88 -36 -19 -117
-60 -180 -93 -63 -32 -149 -77 -190 -100 -159 -87 -383 -206 -570 -302 -107
-54 -205 -106 -217 -113 -12 -8 -69 -38 -125 -68 -57 -29 -161 -84 -233 -121
-71 -38 -182 -95 -245 -128 -63 -33 -137 -72 -165 -87 -93 -50 -239 -127 -460
-240 -228 -117 -374 -193 -460 -240 -27 -15 -135 -71 -240 -125 -104 -53 -226
-116 -270 -140 -44 -23 -147 -77 -230 -120 -82 -43 -178 -93 -213 -111 -34
-19 -69 -34 -76 -34 -20 0 -26 33 -26 141 0 65 -4 100 -12 107 -15 12 -167 95
-333 182 -66 34 -133 70 -150 80 -16 9 -82 44 -145 77 -352 185 -508 267 -535
283 -16 9 -88 48 -160 85 -71 37 -134 71 -140 75 -5 4 -95 51 -200 105 -192
99 -518 273 -655 350 -41 23 -127 68 -190 100 -63 32 -171 88 -240 125 -167
90 -242 130 -525 277 -132 69 -253 133 -270 143 -16 9 -66 37 -110 60 -44 23
-123 66 -175 95 -52 29 -149 80 -215 115 -113 59 -150 79 -270 145 -27 15
-104 57 -170 93 -66 35 -133 72 -150 82 -16 10 -109 58 -206 108 -96 50 -195
101 -220 115 -134 74 -469 253 -639 340 -107 55 -199 103 -205 107 -5 4 -73
40 -150 80 -77 40 -167 87 -200 105 -33 18 -152 81 -265 140 -113 59 -209 111
-215 115 -11 8 -134 73 -320 170 -292 152 -376 197 -470 250 -187 107 -461
257 -544 300 l-44 22 34 20 c47 29 256 146 359 200 47 25 195 104 330 176 135
71 265 141 290 154 53 29 188 101 355 188 190 99 282 148 395 210 58 31 168
90 245 130 77 40 172 89 210 110 39 20 120 63 180 95 61 32 149 80 196 106 48
26 145 77 215 112 71 36 239 124 374 197 135 73 292 158 350 188 58 30 143 75
190 99 215 115 389 208 430 231 71 39 173 93 335 177 83 43 173 90 200 105 28
15 95 51 150 80 55 29 123 65 150 80 28 15 122 64 210 110 201 104 381 201
555 298 25 14 164 88 309 164 145 77 287 152 315 167 50 28 144 77 379 200
311 162 354 185 382 201 17 10 145 77 285 150 310 161 386 202 560 301 l135
77 55 -30 c30 -17 118 -65 195 -108z m8055 -4920 c50 -27 239 -122 418 -211
180 -89 329 -164 331 -166 14 -11 -80 -66 -344 -200 -71 -36 -157 -80 -190
-98 -81 -44 -269 -144 -465 -247 -47 -25 -158 -82 -246 -127 -89 -44 -197
-101 -240 -124 -44 -24 -128 -70 -189 -102 -60 -32 -137 -72 -170 -90 -33 -18
-149 -78 -258 -134 -109 -56 -208 -108 -220 -115 -32 -20 -250 -133 -517 -269
-129 -65 -239 -123 -245 -127 -5 -4 -86 -47 -180 -95 -93 -48 -174 -91 -180
-95 -5 -4 -90 -49 -188 -99 -98 -50 -188 -97 -200 -105 -32 -20 -148 -81 -347
-183 -220 -114 -402 -208 -460 -241 -94 -52 -169 -92 -290 -154 -254 -132
-425 -223 -520 -276 -97 -54 -283 -153 -440 -234 -91 -47 -181 -94 -200 -105
-19 -11 -84 -46 -145 -78 -60 -32 -114 -61 -120 -65 -5 -4 -91 -49 -190 -100
-99 -51 -211 -109 -250 -130 -38 -20 -128 -68 -200 -105 -71 -38 -134 -71
-140 -75 -5 -4 -91 -49 -190 -100 -174 -89 -305 -158 -430 -225 -63 -34 -212
-112 -435 -228 -143 -74 -259 -135 -350 -184 -30 -17 -136 -72 -235 -123 -301
-155 -325 -172 -325 -227 0 -13 -6 -26 -14 -29 -7 -3 -56 17 -107 44 -52 27
-166 86 -254 132 -88 45 -164 86 -170 90 -5 4 -82 44 -170 90 -88 45 -164 86
-170 90 -5 4 -100 54 -210 110 -110 57 -310 163 -445 235 -135 73 -308 165
-385 205 -77 40 -174 92 -215 115 -41 23 -148 81 -238 129 -89 47 -191 101
-225 120 -34 18 -129 68 -212 111 -82 43 -154 81 -160 85 -5 4 -50 29 -100 55
-49 26 -121 64 -160 85 -38 21 -110 59 -160 85 -122 64 -215 114 -445 237
-107 58 -253 136 -325 173 -71 37 -152 80 -180 95 -27 15 -104 57 -170 93 -66
36 -154 84 -195 107 -41 22 -138 73 -215 112 -77 39 -174 90 -215 113 -41 23
-115 64 -165 90 -49 27 -139 76 -200 110 -60 33 -162 87 -225 119 -63 33 -171
89 -240 126 -69 37 -174 93 -235 125 -60 32 -114 61 -120 65 -5 4 -82 45 -170
90 -88 45 -182 95 -210 110 -116 64 -457 246 -579 309 -120 63 -262 139 -376
203 -100 56 -421 226 -507 268 -53 26 -92 51 -92 60 -1 9 21 25 52 39 76 35
598 295 625 312 26 16 -12 35 427 -206 307 -168 348 -190 570 -305 88 -46 259
-138 380 -205 121 -67 292 -159 380 -205 88 -45 237 -124 330 -175 94 -51 204
-110 245 -132 119 -64 258 -137 355 -188 95 -50 180 -96 255 -138 25 -13 126
-67 225 -119 352 -185 401 -211 515 -273 189 -103 238 -128 405 -215 88 -46
204 -107 258 -137 54 -29 100 -53 102 -53 2 0 26 -13 53 -29 56 -33 162 -90
347 -186 72 -37 135 -71 140 -75 6 -4 60 -33 120 -65 61 -32 115 -61 120 -65
6 -4 82 -44 170 -90 242 -126 339 -176 595 -312 129 -69 303 -160 385 -203 83
-42 184 -96 225 -120 67 -37 210 -115 400 -218 36 -19 146 -76 245 -127 192
-98 242 -126 318 -173 29 -18 52 -26 57 -21 5 5 11 77 12 159 l3 150 105 55
c167 88 341 180 395 210 28 15 158 83 290 150 132 68 245 126 250 130 6 5 96
52 200 105 389 199 563 290 680 355 66 37 183 100 260 140 240 125 345 180
485 255 74 40 239 125 365 190 127 65 264 136 305 158 135 72 204 109 235 127
17 9 116 61 220 115 237 122 356 185 465 245 47 26 148 80 225 120 77 40 167
87 200 105 33 18 123 65 200 105 77 40 178 94 225 120 47 26 168 90 270 142
243 125 386 200 491 259 47 26 189 99 315 163 126 64 267 136 314 162 243 130
314 167 530 277 236 120 316 162 510 267 58 31 175 92 260 135 150 75 287 149
360 194 19 11 38 21 42 21 4 0 48 -22 98 -50z m275 -1443 c494 -247 516 -259
504 -273 -5 -7 -35 -22 -67 -35 -31 -13 -77 -35 -102 -49 -25 -14 -106 -57
-180 -94 -74 -38 -139 -72 -145 -76 -13 -9 -142 -77 -350 -185 -93 -49 -183
-96 -200 -106 -16 -10 -84 -45 -150 -79 -66 -34 -124 -66 -130 -70 -11 -8
-118 -65 -290 -155 -60 -32 -155 -81 -210 -110 -55 -29 -154 -80 -220 -115
-66 -34 -133 -70 -150 -80 -60 -35 -165 -90 -370 -195 -115 -59 -241 -124
-280 -145 -38 -21 -110 -59 -160 -85 -49 -26 -94 -51 -100 -55 -5 -4 -100 -54
-210 -110 -110 -57 -238 -124 -285 -150 -47 -26 -130 -71 -185 -100 -55 -29
-104 -56 -110 -60 -11 -8 -153 -83 -375 -197 -74 -39 -155 -81 -180 -95 -25
-14 -99 -53 -165 -88 -66 -35 -140 -74 -165 -88 -25 -14 -124 -65 -220 -115
-96 -49 -197 -102 -225 -117 -27 -15 -81 -45 -120 -65 -38 -21 -90 -49 -115
-63 -25 -14 -146 -77 -270 -140 -124 -63 -229 -118 -235 -122 -17 -12 -158
-87 -490 -260 -77 -40 -223 -116 -325 -170 -254 -134 -400 -210 -570 -298 -80
-41 -172 -89 -205 -107 -33 -18 -123 -65 -200 -105 -77 -41 -174 -92 -216
-115 -42 -23 -136 -72 -210 -110 -74 -37 -138 -71 -144 -75 -13 -9 -160 -87
-360 -190 -313 -162 -395 -209 -395 -228 -1 -10 -3 -80 -5 -157 -4 -165 0
-205 24 -205 9 0 21 4 27 9 5 5 104 57 219 116 116 59 278 145 360 190 83 45
249 133 370 195 121 62 274 142 340 178 148 80 277 147 555 289 118 61 258
134 310 163 91 51 160 87 510 267 172 89 259 135 370 198 41 23 174 93 295
155 228 117 239 122 470 250 77 42 239 128 360 190 294 151 463 239 505 265
19 12 132 70 250 129 118 60 220 112 225 116 6 4 55 31 110 60 55 29 125 66
155 83 30 16 82 44 115 62 33 18 128 68 210 110 83 43 184 96 225 120 41 23
134 72 205 110 72 37 171 89 220 115 50 26 144 76 210 110 116 61 175 92 280
150 53 29 176 94 390 205 154 80 301 158 370 195 28 15 154 80 282 144 227
115 233 117 260 103 15 -9 98 -50 183 -93 300 -149 625 -316 628 -323 1 -4
-17 -17 -40 -29 -24 -12 -65 -34 -93 -50 -27 -15 -95 -52 -150 -82 -55 -29
-154 -83 -220 -120 -66 -37 -183 -100 -260 -140 -258 -134 -350 -183 -360
-190 -9 -7 -74 -42 -245 -132 -41 -22 -149 -78 -240 -124 -91 -46 -210 -108
-265 -137 -55 -30 -145 -78 -200 -107 -55 -29 -122 -65 -150 -80 -27 -15 -135
-71 -240 -124 -104 -53 -215 -110 -245 -127 -30 -17 -107 -59 -170 -92 -63
-33 -134 -70 -157 -83 -22 -13 -112 -60 -200 -105 -87 -45 -210 -109 -273
-144 -63 -34 -160 -86 -215 -115 -55 -29 -122 -65 -150 -80 -27 -15 -111 -58
-185 -95 -74 -38 -162 -84 -195 -103 -33 -19 -121 -66 -195 -105 -74 -39 -166
-88 -205 -109 -38 -21 -137 -72 -220 -114 -82 -42 -154 -80 -160 -84 -5 -4
-57 -32 -115 -62 -58 -31 -145 -77 -195 -103 -49 -26 -207 -108 -350 -182
-143 -75 -264 -139 -270 -143 -5 -4 -73 -40 -150 -80 -77 -40 -176 -92 -220
-115 -44 -23 -127 -67 -185 -97 -58 -30 -121 -64 -140 -75 -36 -20 -236 -125
-480 -250 -187 -97 -351 -183 -375 -198 -11 -7 -88 -47 -170 -90 -204 -106
-390 -202 -450 -235 -27 -15 -95 -51 -150 -80 -55 -29 -104 -56 -110 -60 -5
-4 -149 -78 -318 -164 -205 -104 -309 -152 -312 -143 -3 6 -6 151 -7 321 l-3
309 -90 46 c-171 88 -390 204 -465 246 -41 23 -138 74 -215 114 -142 72 -266
138 -320 170 -37 22 -121 67 -375 201 -107 56 -262 140 -345 185 -82 45 -213
115 -290 155 -77 40 -144 76 -150 80 -5 4 -64 36 -130 70 -66 35 -162 87 -213
117 -52 29 -96 53 -98 53 -2 0 -21 10 -42 23 -20 13 -103 58 -184 100 -255
132 -393 206 -648 346 -407 222 -748 405 -930 498 -113 58 -230 120 -260 138
-53 31 -267 146 -475 255 -55 29 -127 67 -160 85 -131 71 -184 100 -275 150
-189 104 -217 119 -350 188 -74 39 -279 148 -455 242 -176 95 -367 196 -424
225 -57 28 -164 85 -237 125 -73 41 -177 97 -231 126 -54 28 -116 62 -138 74
-22 12 -98 53 -170 90 -156 81 -214 113 -365 200 -63 36 -152 84 -198 107 -45
23 -82 47 -82 53 0 7 26 23 57 35 66 26 354 170 521 259 61 34 117 61 122 61
6 0 106 -52 222 -116 244 -134 288 -158 453 -244 66 -34 187 -99 270 -145 201
-110 289 -156 490 -260 94 -48 217 -113 275 -145 253 -138 355 -193 505 -270
88 -45 241 -126 340 -180 216 -116 305 -164 490 -260 77 -40 187 -99 245 -130
58 -32 137 -74 175 -95 39 -21 93 -50 120 -65 28 -15 113 -60 190 -100 131
-68 303 -160 420 -225 113 -62 155 -85 260 -140 61 -32 133 -70 160 -85 285
-155 392 -214 400 -220 6 -4 60 -33 120 -65 191 -100 255 -134 379 -202 66
-36 155 -84 196 -106 41 -22 102 -54 135 -72 33 -18 116 -61 185 -96 69 -34
154 -79 190 -99 36 -20 106 -58 155 -85 50 -26 113 -60 140 -75 28 -15 100
-53 160 -85 100 -53 287 -153 390 -210 22 -12 81 -44 130 -70 50 -26 124 -67
165 -90 103 -58 238 -125 250 -125 6 0 11 146 12 416 l3 415 95 50 c52 28 160
84 240 126 80 42 179 95 220 118 41 23 161 86 265 138 105 53 222 114 260 135
39 21 120 64 180 96 61 32 115 62 120 66 6 4 109 58 230 120 121 62 225 116
230 120 10 8 167 89 540 280 121 62 251 130 288 152 38 21 71 38 73 38 2 0 21
10 42 23 41 26 195 107 442 235 91 46 208 108 260 137 160 88 218 119 415 220
257 132 393 204 435 230 35 22 154 85 435 230 222 115 359 187 370 195 6 4 82
45 170 90 88 46 165 86 170 90 6 4 71 38 145 76 74 37 191 99 260 137 69 38
207 111 306 163 100 51 235 120 300 155 112 58 150 78 269 144 28 15 106 57
175 92 460 238 577 300 595 313 6 4 125 66 265 137 140 72 282 146 315 165
l60 35 45 -22 c25 -12 185 -92 355 -178z m-657 -2622 c12 -9 160 -86 329 -171
170 -86 353 -180 408 -209 55 -29 173 -90 263 -134 90 -45 162 -86 160 -92 -2
-6 -60 -39 -128 -75 -127 -66 -287 -152 -350 -187 -19 -11 -69 -39 -110 -62
-41 -23 -147 -80 -235 -125 -88 -46 -198 -104 -245 -130 -157 -87 -479 -259
-607 -325 -71 -35 -159 -82 -198 -103 -38 -22 -126 -70 -195 -107 -69 -37
-145 -79 -170 -93 -25 -13 -133 -69 -240 -124 -107 -55 -208 -108 -225 -118
-16 -9 -69 -38 -117 -64 -219 -115 -264 -139 -273 -146 -5 -4 -69 -37 -142
-74 -73 -37 -165 -85 -205 -107 -163 -91 -253 -139 -587 -313 -111 -59 -237
-126 -280 -150 -42 -23 -134 -73 -206 -111 -71 -37 -161 -85 -200 -105 -38
-21 -133 -70 -210 -110 -77 -40 -169 -89 -205 -109 -36 -21 -126 -68 -200
-105 -74 -38 -139 -72 -145 -76 -5 -4 -73 -40 -150 -80 -172 -90 -221 -116
-307 -163 -148 -80 -199 -107 -345 -181 -84 -42 -187 -96 -230 -120 -43 -24
-118 -64 -168 -91 -49 -26 -103 -56 -120 -65 -16 -10 -118 -63 -225 -118 -107
-55 -211 -108 -230 -119 -19 -11 -75 -41 -125 -68 -49 -26 -117 -63 -150 -80
-33 -18 -145 -76 -250 -130 -104 -54 -217 -112 -250 -130 -33 -18 -118 -63
-190 -100 -71 -37 -148 -78 -170 -90 -22 -13 -137 -72 -255 -133 -118 -60
-262 -135 -319 -166 -57 -30 -108 -53 -112 -50 -5 3 -9 132 -9 287 0 155 -4
287 -8 293 -4 6 -56 37 -117 67 -147 75 -341 179 -525 282 -41 23 -120 66
-175 95 -55 29 -176 94 -270 145 -272 149 -371 201 -516 275 -74 37 -153 79
-175 91 -83 47 -496 270 -648 348 -87 45 -197 104 -245 130 -47 27 -131 72
-186 101 -55 29 -125 67 -155 85 -30 17 -116 62 -190 99 -74 38 -139 72 -145
76 -5 4 -55 31 -110 60 -188 99 -270 143 -365 195 -52 29 -162 87 -245 130
-82 43 -208 110 -280 150 -71 39 -197 107 -280 150 -255 132 -355 185 -500
265 -139 77 -222 121 -490 260 -77 40 -223 119 -325 175 -102 56 -250 136
-330 177 -184 96 -522 277 -535 288 -5 4 -68 38 -140 75 -137 71 -240 126
-315 167 -25 14 -94 51 -155 83 -60 32 -139 75 -175 95 -36 20 -139 76 -230
123 -91 47 -199 104 -240 127 -41 22 -112 59 -158 82 -45 22 -82 44 -82 48 0
5 114 65 253 133 138 69 298 151 355 182 l102 56 88 -47 c108 -58 240 -127
442 -231 175 -91 316 -165 375 -198 22 -12 87 -47 145 -77 478 -251 522 -275
720 -383 52 -29 149 -80 215 -115 66 -34 125 -66 130 -70 6 -4 73 -40 150 -80
142 -74 155 -81 273 -148 37 -21 128 -69 202 -106 74 -38 140 -72 145 -76 13
-10 105 -60 185 -101 36 -18 124 -65 195 -104 72 -40 173 -94 225 -120 52 -27
154 -81 225 -120 215 -119 383 -209 520 -280 72 -37 200 -106 285 -153 269
-147 350 -191 515 -277 147 -76 186 -98 385 -210 114 -64 243 -133 500 -267
130 -68 256 -136 350 -188 47 -26 157 -84 245 -130 88 -46 284 -152 435 -235
151 -84 308 -170 348 -191 40 -22 81 -44 90 -49 9 -6 52 -29 94 -53 43 -24 86
-54 97 -68 10 -13 24 -24 31 -24 10 0 169 81 195 100 6 4 91 49 190 100 99 51
194 100 210 110 17 9 89 48 160 85 72 37 162 85 200 105 39 21 153 80 255 132
174 90 263 136 405 213 33 18 146 76 250 130 105 54 260 136 345 183 85 47
178 97 205 112 68 37 245 130 450 235 94 48 175 91 180 95 12 8 184 99 450
235 241 124 397 206 410 215 10 7 138 74 390 205 138 71 340 180 425 228 19
11 100 53 180 95 80 41 192 99 250 129 58 31 152 80 210 111 58 30 110 58 115
63 6 4 105 55 220 114 260 132 479 248 675 357 25 14 134 71 242 126 108 55
225 116 260 135 35 19 113 60 173 92 61 32 115 61 120 65 6 4 105 55 220 113
116 59 266 138 335 176 69 39 134 71 145 71 11 0 30 -7 43 -15z"/>
</g>
</svg>
